<?xml version="1.0" encoding="utf-8"?>
<!-- Generator: Adobe Illustrator 25.2.3, SVG Export Plug-In . SVG Version: 6.00 Build 0)  -->
<svg version="1.1" id="Слой_1" xmlns="http://www.w3.org/2000/svg" xmlns:xlink="http://www.w3.org/1999/xlink" x="0px" y="0px"
	 viewBox="0 0 34.3 34.3" style="enable-background:new 0 0 34.3 34.3;" xml:space="preserve">
<style type="text/css">
	.st0{fill:#F53838;}
	.st1{fill:#FFFFFF;}
</style>
<g>
	<circle class="st0" cx="17.2" cy="17.2" r="16.8"/>
</g>
<path class="st1" d="M22.4,17.2c0,1.4-0.6,2.7-1.5,3.7c-1,1-2.3,1.5-3.7,1.5c-1.4,0-2.7-0.6-3.7-1.5c-1-1-1.5-2.3-1.5-3.7
	c0-0.3,0-0.6,0.1-0.9h-1.8v7c0,0.5,0.4,0.9,0.9,0.9h12.2c0.2,0,0.5-0.1,0.6-0.3c0.2-0.2,0.3-0.4,0.3-0.6v-7h-1.8
	C22.4,16.6,22.4,16.9,22.4,17.2z M17.2,20.7c0.5,0,0.9-0.1,1.3-0.3c0.4-0.2,0.8-0.4,1.1-0.8c0.3-0.3,0.6-0.7,0.8-1.1
	c0.2-0.4,0.3-0.9,0.3-1.3c0-0.5-0.1-0.9-0.3-1.3c-0.2-0.4-0.4-0.8-0.8-1.1c-0.3-0.3-0.7-0.6-1.1-0.8c-0.4-0.2-0.9-0.3-1.3-0.3
	c-0.9,0-1.8,0.4-2.5,1c-0.7,0.7-1,1.5-1,2.5s0.4,1.8,1,2.5C15.3,20.4,16.2,20.7,17.2,20.7z M21.4,13.5h2.1c0.1,0,0.3-0.1,0.4-0.2
	c0.1-0.1,0.2-0.2,0.2-0.4v-2.1c0-0.1-0.1-0.3-0.2-0.4c-0.1-0.1-0.2-0.2-0.4-0.2h-2.1c-0.1,0-0.3,0.1-0.4,0.2
	c-0.1,0.1-0.2,0.2-0.2,0.4V13C20.8,13.3,21.1,13.5,21.4,13.5z M17.2,0.4c-4.5,0-8.7,1.8-11.9,4.9c-3.2,3.2-4.9,7.4-4.9,11.9
	c0,4.5,1.8,8.7,4.9,11.9c3.2,3.2,7.4,4.9,11.9,4.9c2.2,0,4.4-0.4,6.4-1.3c2-0.8,3.9-2.1,5.5-3.6c1.6-1.6,2.8-3.4,3.6-5.5
	c0.8-2,1.3-4.2,1.3-6.4s-0.4-4.4-1.3-6.4c-0.8-2-2.1-3.9-3.6-5.5c-1.6-1.6-3.4-2.8-5.5-3.6C21.6,0.9,19.4,0.4,17.2,0.4z M25.9,24
	c0,1.1-0.9,1.9-1.9,1.9H10.4c-1.1,0-1.9-0.9-1.9-1.9V10.4c0-1.1,0.9-1.9,1.9-1.9H24c1.1,0,1.9,0.9,1.9,1.9V24z"/>
</svg>
