<?xml version="1.0" encoding="utf-8"?>
<!-- Generator: Adobe Illustrator 25.2.3, SVG Export Plug-In . SVG Version: 6.00 Build 0)  -->
<svg version="1.1" id="Слой_1" xmlns="http://www.w3.org/2000/svg" xmlns:xlink="http://www.w3.org/1999/xlink" x="0px" y="0px"
	 viewBox="0 0 34.1 34.1" style="enable-background:new 0 0 34.1 34.1;" xml:space="preserve">
<style type="text/css">
	.st0{fill:#F53838;}
	.st1{fill:#FFFFFF;}
</style>
<g>
	<circle class="st0" cx="17" cy="17" r="16.8"/>
</g>
<path class="st1" d="M17,0.2C7.8,0.2,0.2,7.7,0.2,17S7.8,33.8,17,33.8S33.8,26.3,33.8,17S26.3,0.2,17,0.2z M23.9,14
	c0,0.1,0,0.3,0,0.4c0,4.4-3.3,9.4-9.4,9.4c-1.8,0-3.6-0.5-5.1-1.5c0.3,0,0.5,0,0.8,0c1.6,0,3-0.5,4.1-1.4c-0.7,0-1.4-0.2-1.9-0.7
	c-0.6-0.4-1-1-1.2-1.6c0.5,0.1,1,0.1,1.5-0.1c-0.7-0.2-1.4-0.6-1.9-1.1c-0.5-0.6-0.7-1.3-0.7-2.1v0c0.4,0.2,1,0.4,1.5,0.4
	c-0.7-0.5-1.2-1.2-1.4-2c-0.2-0.8-0.1-1.7,0.4-2.4c0.8,1,1.9,1.9,3,2.5c1.2,0.6,2.5,0.9,3.8,1c-0.2-0.7-0.1-1.5,0.2-2.1
	c0.3-0.7,0.8-1.2,1.5-1.6c0.6-0.3,1.4-0.5,2.1-0.3c0.7,0.1,1.4,0.5,1.9,1c0.7-0.1,1.5-0.4,2.1-0.8c-0.2,0.8-0.8,1.4-1.5,1.8
	c0.7-0.1,1.3-0.3,1.9-0.5C25.1,12.9,24.5,13.5,23.9,14z"/>
</svg>
